<?xml version="1.0" standalone="no"?>
<!DOCTYPE svg PUBLIC "-//W3C//DTD SVG 20010904//EN"
 "http://www.w3.org/TR/2001/REC-SVG-20010904/DTD/svg10.dtd">
<svg version="1.0" xmlns="http://www.w3.org/2000/svg"
 width="2000.000000pt" height="2000.000000pt" viewBox="0 0 2000.000000 2000.000000"
 preserveAspectRatio="xMidYMid meet">
<metadata>
Created by potrace 1.14, written by Peter Selinger 2001-2017
</metadata>
<g transform="translate(0.000000,2000.000000) scale(0.100000,-0.100000)"
fill="#000000" stroke="none">
<path d="M0 10000 l0 -10000 10000 0 10000 0 0 10000 0 10000 -10000 0 -10000
0 0 -10000z m6230 1929 c841 -76 1301 -513 1395 -1324 21 -185 21 -1025 0
-1210 -94 -808 -560 -1251 -1392 -1324 -78 -7 -585 -11 -1432 -11 l-1311 0 0
1940 0 1940 1313 0 c831 0 1354 -4 1427 -11z m2800 -684 l0 -695 970 0 970 0
0 695 0 695 555 0 555 0 0 -1940 0 -1940 -555 0 -555 0 0 695 0 695 -970 0
-970 0 0 -695 0 -695 -555 0 -555 0 0 1940 0 1940 555 0 555 0 0 -695z m4432
3 l3 -693 968 -3 967 -2 0 695 0 695 555 0 555 0 0 -1940 0 -1940 -555 0 -555
0 0 695 0 695 -967 -2 -968 -3 -3 -692 -2 -693 -550 0 -550 0 0 1940 0 1940
550 0 550 0 2 -692z"/>
<path d="M4600 10000 l0 -830 734 0 c793 0 821 2 938 53 32 14 80 47 109 73
139 131 165 267 156 804 -6 325 -11 366 -62 478 -34 74 -115 156 -192 193
-121 58 -143 59 -949 59 l-734 0 0 -830z"/>
</g>
</svg>
