<?xml version="1.0" standalone="no"?>
<!DOCTYPE svg PUBLIC "-//W3C//DTD SVG 20010904//EN"
 "http://www.w3.org/TR/2001/REC-SVG-20010904/DTD/svg10.dtd">
<svg version="1.0" xmlns="http://www.w3.org/2000/svg"
 width="1000.000000pt" height="1000.000000pt" viewBox="0 0 1000.000000 1000.000000"
 preserveAspectRatio="xMidYMid meet">
<metadata>
Created by potrace 1.14, written by Peter Selinger 2001-2017
</metadata>
<g transform="translate(0.000000,1000.000000) scale(0.100000,-0.100000)"
fill="#000000" stroke="none">
<path d="M22 5000 l3 -3804 3075 0 c2745 1 3294 4 3475 19 28 2 84 7 125 10
119 10 298 30 445 51 104 14 325 59 470 94 373 91 669 204 970 370 33 18 67
39 76 46 8 8 19 14 23 14 5 0 52 30 105 66 375 259 651 571 847 961 73 143 88
178 150 353 30 82 94 311 109 390 7 36 36 200 40 230 2 14 6 43 10 65 26 169
30 332 30 1125 0 709 -5 960 -19 1050 -2 14 -7 52 -11 85 -4 32 -8 66 -10 75
-1 8 -6 38 -9 65 -6 40 -44 227 -60 295 -21 86 -86 285 -123 379 -247 623
-675 1083 -1303 1397 -216 108 -539 227 -758 279 -9 3 -35 9 -57 15 -58 15
-224 50 -265 56 -19 3 -42 7 -50 9 -8 2 -31 7 -50 10 -19 3 -42 8 -50 10 -8 2
-40 7 -70 10 -30 3 -82 10 -115 15 -33 5 -85 12 -115 15 -30 3 -71 7 -90 10
-19 2 -73 7 -120 10 -47 4 -105 8 -130 10 -176 15 -671 18 -3438 19 l-3112 1
2 -3805z m6228 1619 c126 -14 161 -19 230 -34 14 -3 35 -7 46 -9 12 -3 59 -16
104 -30 416 -132 646 -418 687 -852 9 -100 9 -1286 0 -1378 -11 -111 -18 -146
-39 -221 -121 -423 -450 -655 -1013 -713 -38 -4 -862 -7 -1830 -7 l-1760 0 -1
1620 c0 891 1 1623 4 1628 5 10 3479 7 3572 -4z"/>
</g>
</svg>
