<?xml version="1.0" encoding="UTF-8" standalone="no"?>
<svg
   version="1.1"
   x="0px"
   y="0px"
   width="100"
   height="51"
   viewBox="0 0 100 51"
   id="svg6"
   sodipodi:docname="logo.svg"
   inkscape:version="1.1.2 (0a00cf5339, 2022-02-04)"
   xmlns:inkscape="http://www.inkscape.org/namespaces/inkscape"
   xmlns:sodipodi="http://sodipodi.sourceforge.net/DTD/sodipodi-0.dtd"
   xmlns="http://www.w3.org/2000/svg"
   xmlns:svg="http://www.w3.org/2000/svg">
  <defs
     id="defs10" />
  <sodipodi:namedview
     id="namedview8"
     pagecolor="#ffffff"
     bordercolor="#666666"
     borderopacity="1.0"
     inkscape:pageshadow="2"
     inkscape:pageopacity="0.0"
     inkscape:pagecheckerboard="0"
     showgrid="false"
     inkscape:zoom="2.5722563"
     inkscape:cx="24.103352"
     inkscape:cy="10.691003"
     inkscape:window-width="1366"
     inkscape:window-height="692"
     inkscape:window-x="0"
     inkscape:window-y="0"
     inkscape:window-maximized="1"
     inkscape:current-layer="g14388" />
  <style
     type="text/css"
     id="style2">
	.st0{fill:#515151;}
</style>
  <g
     id="g14388"
     transform="matrix(0.21285932,0,0,0.21285932,0.82517246,0.07987918)">
    <g
       id="g24798"
       transform="matrix(0.24284727,0,0,0.24284727,-75.664702,-122.41522)">
      <path
         style="fill:#ec1e1e;fill-opacity:1;stroke-width:1.33333"
         d="m 824.57865,1479.5081 c 0.4195,-2.0166 8.5671,-50.9166 18.1059,-108.6666 9.5388,-57.75 25.1433,-152.1102 34.6766,-209.6894 9.5333,-57.5791 17.3333,-104.9791 17.3333,-105.3333 0,-0.3542 -46.0546,-0.644 -102.34358,-0.644 H 690.00726 l -17.76755,107 c -9.77215,58.85 -18.08257,108.35 -18.4676,110 l -0.70005,3 h -47.96139 -47.9614 l 0.75897,-3.6667 c 0.92054,-4.4472 52.78624,-315.97246 52.78624,-317.05435 0,-0.41987 -2.55,0.8172 -5.66666,2.74902 -12.32598,7.64008 -43.26794,21.99276 -57.1597,26.51398 -35.96529,11.70529 -49.45292,12.79139 -158.84448,12.79139 h -89.2077 l 0.77726,-3.6666 c 0.42751,-2.0167 18.47938,-110.4667 40.11526,-241.00003 21.63589,-130.53334 39.64522,-238.68334 40.02074,-240.33334 l 0.68275,-3 h 88.5 c 91.61252,0 106.94083,0.66616 128.11587,5.5678 74.37097,17.21556 126.95546,70.16083 144.11018,145.09887 8.89902,38.87413 6.79748,83.06824 -6.09926,128.264 -2.26312,7.93093 -9.2929,46.1366 -16.63392,90.40267 -6.99287,42.16666 -13.02484,78.01666 -13.40439,79.66666 l -0.69008,3 h 102.6921 c 56.4806,0 102.723,-0.15 102.7608,-0.33333 0.038,-0.18333 6.4962,-39.03333 14.352,-86.33333 l 14.2831,-86 48.2847,-0.34994 48.28465,-0.34993 -0.6777,3.68327 c -2.365,12.85237 -61.92885,374.32689 -61.92885,375.82659 0,1.5704 15.722,1.8566 101.99995,1.8566 56.1,0 102.0385,-0.15 102.0857,-0.3333 0.047,-0.1833 6.504,-39.0333 14.3486,-86.3333 l 14.2626,-85.99996 48.2883,-0.35 48.2881,-0.3499 -0.6609,3.6833 c -0.3636,2.02576 -18.3551,110.18316 -39.9812,240.34986 -21.6261,130.1667 -39.6629,238.3167 -40.0816,240.3333 l -0.7615,3.6667 h -47.8941 c -26.3417,0 -47.894,-0.3137 -47.894,-0.6971 0,-0.3833 8.1,-49.2697 18,-108.6362 9.9,-59.3666 18,-108.5566 18,-109.3112 0,-0.9316 -32.8557,-1.2624 -102.3333,-1.0304 l -102.33335,0.3416 -18.2565,108.6666 c -10.0412,59.7667 -18.2912,109.1167 -18.3334,109.6667 -0.042,0.55 -21.7244,1 -48.1827,1 h -48.1059 z M 502.02782,901.69676 c 17.1752,-2.10476 32.47205,-6.79765 49.61362,-15.22085 45.86551,-22.53788 80.51764,-67.16404 93.09224,-119.88724 9.51579,-39.89812 6.20452,-75.99859 -9.79125,-106.74716 -4.96633,-9.54676 -8.83261,-14.61358 -18.91191,-24.78427 -10.87634,-10.97499 -14.46202,-13.66583 -25.33604,-19.0132 -22.93252,-11.27724 -27.05572,-11.91164 -81.5356,-12.54521 l -47.53558,-0.55282 -0.78416,3.78108 c -1.11595,5.38099 -48.81132,293.94274 -48.81132,295.31338 0,1.6665 75.9636,1.37641 90,-0.34371 z"
         id="path30" />
      <g
         aria-label="ürriYET"
         transform="matrix(5.4997892,0,-0.92337918,5.4997892,371.34173,591.6838)"
         id="text1967-3"
         style="font-size:40px;line-height:1.25;white-space:pre;shape-inside:url(#rect1969-7);fill:#ffffff">
        <path
           d="m 135.60156,41.935547 v 15.683594 c 0,1.621093 0.19531,2.910156 0.56641,4.082031 1.38672,4.863281 5.48828,8.261719 11.05469,8.261719 5.58593,0 9.66796,-3.398438 11.07421,-8.261719 0.35157,-1.171875 0.54688,-2.460938 0.54688,-4.082031 V 41.935547 h -4.66797 v 15.722656 c 0,1.25 -0.13672,2.148438 -0.39062,3.007813 -0.85938,2.8125 -3.16407,4.921875 -6.5625,4.921875 -3.39844,0 -5.6836,-2.109375 -6.54297,-4.921875 -0.25391,-0.859375 -0.39063,-1.757813 -0.39063,-3.007813 V 41.935547 Z m 5.6836,-6.699219 v 4.316406 h 4.49218 v -4.316406 z m 7.4414,0 v 4.316406 h 4.47266 v -4.316406 z"
           style="font-weight:600;font-family:'NEXT ART';-inkscape-font-specification:'NEXT ART Semi-Bold'"
           id="path46386" />
        <path
           d="M 168.74609,69.962891 V 58.048828 h 6.21094 l 7.07031,11.914063 h 5.41016 l -7.44141,-12.265625 c 0.35157,-0.09766 0.66407,-0.195313 0.97657,-0.3125 1.42578,-0.507813 2.65625,-1.386719 3.57421,-2.695313 0.91797,-1.289062 1.42579,-2.890625 1.42579,-4.667969 0,-3.183593 -1.58204,-5.703125 -4.02344,-6.992187 -1.21094,-0.683594 -2.63672,-1.074219 -4.78516,-1.074219 h -13.08594 v 28.007813 z m 0,-16.230469 v -7.402344 h 7.83203 c 1.25,0 1.875,0.09766 2.42188,0.332031 1.36719,0.566407 2.34375,1.757813 2.34375,3.378907 0,1.621093 -0.99609,2.792968 -2.34375,3.359375 -0.56641,0.234375 -1.19141,0.332031 -2.42188,0.332031 z"
           style="font-weight:600;font-family:'NEXT ART';-inkscape-font-specification:'NEXT ART Semi-Bold'"
           id="path46388" />
        <path
           d="M 195.62109,69.962891 V 58.048828 h 6.21094 l 7.07031,11.914063 h 5.41016 l -7.44141,-12.265625 c 0.35157,-0.09766 0.66407,-0.195313 0.97657,-0.3125 1.42578,-0.507813 2.65625,-1.386719 3.57421,-2.695313 0.91797,-1.289062 1.42579,-2.890625 1.42579,-4.667969 0,-3.183593 -1.58204,-5.703125 -4.02344,-6.992187 -1.21094,-0.683594 -2.63672,-1.074219 -4.78516,-1.074219 h -13.08594 v 28.007813 z m 0,-16.230469 v -7.402344 h 7.83203 c 1.25,0 1.875,0.09766 2.42188,0.332031 1.36719,0.566407 2.34375,1.757813 2.34375,3.378907 0,1.621093 -0.99609,2.792968 -2.34375,3.359375 -0.56641,0.234375 -1.19141,0.332031 -2.42188,0.332031 z"
           style="font-weight:600;font-family:'NEXT ART';-inkscape-font-specification:'NEXT ART Semi-Bold'"
           id="path46390" />
        <path
           d="m 217.82812,69.962891 h 4.6875 V 41.955078 h -4.6875 z"
           style="font-weight:600;font-family:'NEXT ART';-inkscape-font-specification:'NEXT ART Semi-Bold'"
           id="path46392" />
        <path
           d="m 217.85494,34.848021 v 4.316406 h 4.47266 v -4.316406 z"
           style="font-weight:600;font-size:40px;line-height:1.25;font-family:'NEXT ART';-inkscape-font-specification:'NEXT ART Semi-Bold';white-space:pre;shape-inside:url(#rect1969-7);fill:#ffffff"
           id="path46386-4-1"
           sodipodi:nodetypes="ccccc" />
        <path
           d="M 240.25,69.962891 V 58.908203 l 10.07812,-16.953125 h -5.41015 l -6.99219,12.207031 -7.01172,-12.207031 h -5.41015 l 10.07812,16.953125 v 11.054688 z"
           style="font-weight:600;font-family:'NEXT ART';-inkscape-font-specification:'NEXT ART Semi-Bold'"
           id="path46394" />
        <path
           d="m 253.31641,41.955078 v 28.007813 h 19.12109 v -4.335938 h -14.43359 v -8.886719 h 11.1914 v -4.296875 h -11.1914 v -6.152343 h 14.43359 v -4.335938 z"
           style="font-weight:600;font-family:'NEXT ART';-inkscape-font-specification:'NEXT ART Semi-Bold'"
           id="path46396" />
        <path
           d="m 275.40625,41.935547 v 4.375 h 9.47266 v 23.652344 h 4.6875 V 46.310547 h 9.51171 v -4.375 z"
           style="font-weight:600;font-family:'NEXT ART';-inkscape-font-specification:'NEXT ART Semi-Bold'"
           id="path46398" />
      </g>
      <g
         aria-label="AREKETI"
         transform="matrix(5.4997892,0,-0.92337918,5.4997892,641.02048,766.48347)"
         id="text1967-3-8"
         style="font-size:40px;line-height:1.25;white-space:pre;shape-inside:url(#rect1969-7-4);fill:#ffffff">
        <path
           d="m 155.54297,69.962891 h 4.90234 l -11.25,-28.007813 h -4.6289 l -11.26954,28.007813 h 4.90235 l 2.01172,-5.195313 h 13.30078 z m -8.67188,-22.402344 5,12.929687 h -10.01953 z"
           style="font-weight:600;font-family:'NEXT ART';-inkscape-font-specification:'NEXT ART Semi-Bold'"
           id="path46401" />
        <path
           d="M 168.04297,69.962891 V 58.048828 h 6.21094 l 7.07031,11.914063 h 5.41015 l -7.4414,-12.265625 c 0.35156,-0.09766 0.66406,-0.195313 0.97656,-0.3125 1.42578,-0.507813 2.65625,-1.386719 3.57422,-2.695313 0.91797,-1.289062 1.42578,-2.890625 1.42578,-4.667969 0,-3.183593 -1.58203,-5.703125 -4.02344,-6.992187 -1.21093,-0.683594 -2.63672,-1.074219 -4.78515,-1.074219 H 163.375 v 28.007813 z m 0,-16.230469 v -7.402344 h 7.83203 c 1.25,0 1.875,0.09766 2.42187,0.332031 1.36719,0.566407 2.34375,1.757813 2.34375,3.378907 0,1.621093 -0.99609,2.792968 -2.34375,3.359375 -0.5664,0.234375 -1.1914,0.332031 -2.42187,0.332031 z"
           style="font-weight:600;font-family:'NEXT ART';-inkscape-font-specification:'NEXT ART Semi-Bold'"
           id="path46403" />
        <path
           d="m 190.25,41.955078 v 28.007813 h 19.12109 V 65.626953 H 194.9375 v -8.886719 h 11.19141 V 52.443359 H 194.9375 v -6.152343 h 14.43359 v -4.335938 z"
           style="font-weight:600;font-family:'NEXT ART';-inkscape-font-specification:'NEXT ART Semi-Bold'"
           id="path46405" />
        <path
           d="m 227.98437,41.955078 -9.45312,10.546875 V 41.955078 h -4.6875 v 28.007813 h 4.6875 V 58.791016 l 3.04687,-3.320313 9.72657,14.492188 h 5.58593 c -4.0625,-5.976563 -8.08593,-11.953125 -12.16796,-17.929688 l 9.25781,-10.078125 z"
           style="font-weight:600;font-family:'NEXT ART';-inkscape-font-specification:'NEXT ART Semi-Bold'"
           id="path46407" />
        <path
           d="m 239.82031,41.955078 v 28.007813 h 19.1211 v -4.335938 h -14.4336 v -8.886719 h 11.19141 v -4.296875 h -11.19141 v -6.152343 h 14.4336 v -4.335938 z"
           style="font-weight:600;font-family:'NEXT ART';-inkscape-font-specification:'NEXT ART Semi-Bold'"
           id="path46409" />
        <path
           d="m 261.91016,41.935547 v 4.375 h 9.47265 v 23.652344 h 4.6875 V 46.310547 h 9.51172 v -4.375 z"
           style="font-weight:600;font-family:'NEXT ART';-inkscape-font-specification:'NEXT ART Semi-Bold'"
           id="path46411" />
        <path
           d="m 289.52734,69.962891 h 4.6875 V 41.955078 h -4.6875 z"
           style="font-weight:600;font-family:'NEXT ART';-inkscape-font-specification:'NEXT ART Semi-Bold'"
           id="path46413" />
        <path
           d="m 289.55416,34.848021 v 4.316406 h 4.47266 v -4.316406 z"
           style="font-weight:600;font-size:40px;line-height:1.25;font-family:'NEXT ART';-inkscape-font-specification:'NEXT ART Semi-Bold';white-space:pre;shape-inside:url(#rect1969-7);fill:#ffffff"
           id="path46386-4-6"
           sodipodi:nodetypes="ccccc" />
      </g>
      <g
         aria-label="IJITAL"
         transform="matrix(5.4997892,0,-0.92337918,5.4997892,86.612195,380.00188)"
         id="text1967-3-9"
         style="font-size:40px;line-height:1.25;white-space:pre;shape-inside:url(#rect1969-7-63);fill:#ffffff">
        <path
           d="m 135.83594,69.962891 h 4.6875 V 41.955078 h -4.6875 z"
           style="font-weight:600;font-family:'NEXT ART';-inkscape-font-specification:'NEXT ART Semi-Bold'"
           id="path46373" />
        <path
           d="m 135.86276,34.848021 v 4.316406 h 4.47266 v -4.316406 z"
           style="font-weight:600;font-size:40px;line-height:1.25;font-family:'NEXT ART';-inkscape-font-specification:'NEXT ART Semi-Bold';white-space:pre;shape-inside:url(#rect1969-7);fill:#ffffff"
           id="path46386-4"
           sodipodi:nodetypes="ccccc" />
        <path
           d="m 161.40234,69.962891 h 4.6875 V 41.955078 h -4.6875 z"
           style="font-weight:600;font-size:40px;line-height:1.25;font-family:'NEXT ART';-inkscape-font-specification:'NEXT ART Semi-Bold';white-space:pre;shape-inside:url(#rect1969-7-63);fill:#ffffff"
           id="path46373-4" />
        <path
           d="m 161.42916,34.848021 v 4.316406 h 4.47266 v -4.316406 z"
           style="font-weight:600;font-size:40px;line-height:1.25;font-family:'NEXT ART';-inkscape-font-specification:'NEXT ART Semi-Bold';white-space:pre;shape-inside:url(#rect1969-7);fill:#ffffff"
           id="path46386-4-4"
           sodipodi:nodetypes="ccccc" />
        <path
           d="m 143.27734,68.888672 c 1.3086,0.722656 2.73438,1.074219 4.23828,1.074219 4.80469,0 8.04688,-3.671875 8.35938,-7.988282 0.0781,-1.09375 0.11719,-2.34375 0.11719,-4.082031 v -15.9375 h -4.6875 v 18.417969 c 0,1.074219 -0.0781,1.816406 -0.25391,2.382812 -0.44922,1.425782 -1.79687,2.539063 -3.53516,2.539063 -0.74218,0 -1.42578,-0.175781 -2.03125,-0.546875 z"
           style="font-weight:600;font-family:'NEXT ART';-inkscape-font-specification:'NEXT ART Semi-Bold'"
           id="path46375" />
        <path
           d="m 170.03516,41.935547 v 4.375 h 9.47265 v 23.652344 h 4.6875 V 46.310547 h 9.51172 v -4.375 z"
           style="font-weight:600;font-family:'NEXT ART';-inkscape-font-specification:'NEXT ART Semi-Bold'"
           id="path46379" />
        <path
           d="m 213.72656,69.962891 h 4.90235 l -11.25,-28.007813 H 202.75 l -11.26953,28.007813 h 4.90234 l 2.01172,-5.195313 h 13.30078 z m -8.67187,-22.402344 5,12.929687 h -10.01953 z"
           style="font-weight:600;font-family:'NEXT ART';-inkscape-font-specification:'NEXT ART Semi-Bold'"
           id="path46381" />
        <path
           d="m 221.55859,41.935547 v 28.027344 h 19.14063 v -4.375 H 226.24609 V 41.935547 Z"
           style="font-weight:600;font-family:'NEXT ART';-inkscape-font-specification:'NEXT ART Semi-Bold'"
           id="path46383" />
      </g>
    </g>
  </g>
</svg>
