<?xml version="1.0" encoding="UTF-8" standalone="no"?>
<svg
   version="1.1"
   x="0px"
   y="0px"
   width="130"
   height="24"
   viewBox="0 0 130 24"
   id="svg6"
   sodipodi:docname="logo.svg"
   inkscape:version="1.1.1 (3bf5ae0d25, 2021-09-20)"
   xmlns:inkscape="http://www.inkscape.org/namespaces/inkscape"
   xmlns:sodipodi="http://sodipodi.sourceforge.net/DTD/sodipodi-0.dtd"
   xmlns="http://www.w3.org/2000/svg"
   xmlns:svg="http://www.w3.org/2000/svg">
  <defs
     id="defs10" />
  <sodipodi:namedview
     id="namedview8"
     pagecolor="#ffffff"
     bordercolor="#666666"
     borderopacity="1.0"
     inkscape:pageshadow="2"
     inkscape:pageopacity="0.0"
     inkscape:pagecheckerboard="0"
     showgrid="false"
     inkscape:zoom="3.6298868"
     inkscape:cx="59.230497"
     inkscape:cy="11.983845"
     inkscape:window-width="1366"
     inkscape:window-height="692"
     inkscape:window-x="0"
     inkscape:window-y="0"
     inkscape:window-maximized="1"
     inkscape:current-layer="svg6" />
  <style
     type="text/css"
     id="style2">
	.st0{fill:#515151;}
</style>
  <g
     id="g14388"
     transform="matrix(0.21285932,0,0,0.21285932,0.82517246,0.07987918)">
    <g
       aria-label="D   HH"
       transform="matrix(4.9602367,0,0,4.0585953,6.675006,105.95226)"
       id="text3955"
       style="font-size:40px;line-height:1.25;white-space:pre;shape-inside:url(#rect3957);display:inline;fill:#ec1e1e">
      <path
         d="M -1.3457031,-25.979647 H 16.232422 q 11.71875,0 11.71875,11.71875 v 3.90625 q 0,11.7187502 -11.71875,11.7187502 H -1.3457031 Z m 7.8125,7.8125 v 11.7187502 h 9.7656251 q 3.90625,0 3.90625,-3.9062502 v -3.90625 q 0,-3.90625 -3.90625,-3.90625 z"
         style="font-family:'Manilla Cellos';-inkscape-font-specification:'Manilla Cellos'"
         id="path32709" />
      <path
         d="m 67.482422,-8.4015218 v 9.765625 h -7.8125 V -25.979647 h 7.8125 v 9.765625 h 13.671875 v -9.765625 h 7.8125 V 1.3641032 h -7.8125 v -9.765625 z"
         style="font-family:'Manilla Cellos';-inkscape-font-specification:'Manilla Cellos'"
         id="path32711" />
      <path
         d="m 98.732422,-8.4015218 v 9.765625 h -7.8125 V -25.979647 h 7.8125 v 9.765625 H 112.4043 v -9.765625 h 7.8125 V 1.3641032 h -7.8125 v -9.765625 z"
         style="font-family:'Manilla Cellos';-inkscape-font-specification:'Manilla Cellos';fill:#ec1e1e;fill-opacity:1"
         id="path32713" />
    </g>
    <g
       aria-label="DiJiTAL HÜRRiYET HAREKETi"
       transform="matrix(0.81789727,0,0,0.81789727,50.265109,82.819982)"
       id="text2658"
       style="font-size:40px;line-height:1.25;white-space:pre;shape-inside:url(#rect2660)">
      <path
         d="m 127.14852,-98.794089 q 0,-0.2 0.12,-0.32 0.16,-0.16 0.36,-0.16 h 9.76 q 2.84,0 5,1 2.16,1 3.32,2.88 1.2,1.84 1.2,4.32 v 11.6 q 0,2.48 -1.2,4.36 -1.16,1.84 -3.32,2.84 -2.16,1 -5,1 h -9.76 q -0.2,0 -0.36,-0.12 -0.12,-0.16 -0.12,-0.36 z m 10.44,23.52 q 2.12,0 3.36,-1.32 1.28,-1.36 1.32,-3.6 v -10.12 q 0,-2.28 -1.28,-3.6 -1.28,-1.36 -3.44,-1.36 h -5.56 q -0.2,0 -0.2,0.2 v 19.6 q 0,0.2 0.2,0.2 z"
         style="font-weight:600;font-family:Barlow;-inkscape-font-specification:'Barlow Semi-Bold'"
         id="path14154" />
      <path
         d="m 151.26847,-91.234089 q 0,-0.2 0.12,-0.32 0.16,-0.16 0.36,-0.16 h 3.68 q 0.2,0 0.32,0.16 0.16,0.12 0.16,0.32 v 19.48 q 0,0.2 -0.16,0.36 -0.12,0.12 -0.32,0.12 h -3.68 q -0.2,0 -0.36,-0.12 -0.12,-0.16 -0.12,-0.36 z m 2.32,-3.28 q -1.24,0 -2.04,-0.8 -0.8,-0.8 -0.8,-2.04 0,-1.24 0.8,-2.04 0.8,-0.800001 2.04,-0.800001 1.24,0 2,0.800001 0.8,0.8 0.8,2.04 0,1.24 -0.8,2.04 -0.8,0.8 -2,0.8 z"
         style="font-weight:600;font-family:Barlow;-inkscape-font-specification:'Barlow Semi-Bold'"
         id="path14156" />
      <path
         d="m 169.3084,-70.954089 q -2.92,0 -5.12,-1.08 -2.2,-1.12 -3.4,-3.12 -1.2,-2 -1.2,-4.64 v -2.68 q 0,-0.2 0.12,-0.32 0.16,-0.16 0.36,-0.16 h 3.68 q 0.2,0 0.32,0.16 0.16,0.12 0.16,0.32 v 2.68 q 0,2.16 1.36,3.52 1.4,1.32 3.72,1.32 2.24,0 3.68,-1.32 1.44,-1.36 1.44,-3.52 v -19 q 0,-0.2 0.12,-0.32 0.16,-0.16 0.36,-0.16 h 3.64 q 0.2,0 0.32,0.16 0.16,0.12 0.16,0.32 v 19 q 0,2.64 -1.24,4.64 -1.2,2 -3.44,3.12 -2.2,1.08 -5.04,1.08 z"
         style="font-weight:600;font-family:Barlow;-inkscape-font-specification:'Barlow Semi-Bold'"
         id="path14158" />
      <path
         d="m 184.26835,-91.234089 q 0,-0.2 0.12,-0.32 0.16,-0.16 0.36,-0.16 h 3.68 q 0.2,0 0.32,0.16 0.16,0.12 0.16,0.32 v 19.48 q 0,0.2 -0.16,0.36 -0.12,0.12 -0.32,0.12 h -3.68 q -0.2,0 -0.36,-0.12 -0.12,-0.16 -0.12,-0.36 z m 2.32,-3.28 q -1.24,0 -2.04,-0.8 -0.8,-0.8 -0.8,-2.04 0,-1.24 0.8,-2.04 0.8,-0.800001 2.04,-0.800001 1.24,0 2,0.800001 0.8,0.8 0.8,2.04 0,1.24 -0.8,2.04 -0.8,0.8 -2,0.8 z"
         style="font-weight:600;font-family:Barlow;-inkscape-font-specification:'Barlow Semi-Bold'"
         id="path14160" />
      <path
         d="m 212.22828,-99.274089 q 0.2,0 0.32,0.16 0.16,0.12 0.16,0.32 v 3.08 q 0,0.2 -0.16,0.36 -0.12,0.12 -0.32,0.12 h -7.4 q -0.2,0 -0.2,0.2 v 23.28 q 0,0.2 -0.16,0.36 -0.12,0.12 -0.32,0.12 h -3.68 q -0.2,0 -0.36,-0.12 -0.12,-0.16 -0.12,-0.36 v -23.28 q 0,-0.2 -0.2,-0.2 h -7.08 q -0.2,0 -0.36,-0.12 -0.12,-0.16 -0.12,-0.36 v -3.08 q 0,-0.2 0.12,-0.32 0.16,-0.16 0.36,-0.16 z"
         style="font-weight:600;font-family:Barlow;-inkscape-font-specification:'Barlow Semi-Bold'"
         id="path14162" />
      <path
         d="m 229.94824,-71.274089 q -0.4,0 -0.52,-0.4 l -1.32,-4.28 q -0.08,-0.16 -0.2,-0.16 h -10.6 q -0.12,0 -0.2,0.16 l -1.32,4.28 q -0.12,0.4 -0.52,0.4 h -4 q -0.24,0 -0.36,-0.12 -0.12,-0.16 -0.04,-0.44 l 8.72,-27.04 q 0.12,-0.4 0.52,-0.4 h 5 q 0.4,0 0.52,0.4 l 8.72,27.04 q 0.04,0.08 0.04,0.2 0,0.36 -0.44,0.36 z m -11.6,-8.72 q -0.04,0.24 0.16,0.24 h 8.16 q 0.24,0 0.16,-0.24 l -4.12,-13.48 q -0.04,-0.16 -0.12,-0.16 -0.08,0 -0.12,0.16 z"
         style="font-weight:600;font-family:Barlow;-inkscape-font-specification:'Barlow Semi-Bold'"
         id="path14164" />
      <path
         d="m 237.98821,-98.794089 q 0,-0.2 0.12,-0.32 0.16,-0.16 0.36,-0.16 h 3.68 q 0.2,0 0.32,0.16 0.16,0.12 0.16,0.32 v 23.32 q 0,0.2 0.2,0.2 h 13.4 q 0.2,0 0.32,0.16 0.16,0.12 0.16,0.32 v 3.04 q 0,0.2 -0.16,0.36 -0.12,0.12 -0.32,0.12 h -17.76 q -0.2,0 -0.36,-0.12 -0.12,-0.16 -0.12,-0.36 z"
         style="font-weight:600;font-family:Barlow;-inkscape-font-specification:'Barlow Semi-Bold'"
         id="path14166" />
      <path
         d="m 142.38852,-45.851381 q 0,-0.2 0.12,-0.32 0.16,-0.16 0.36,-0.16 h 3.68 q 0.2,0 0.32,0.16 0.16,0.12 0.16,0.32 v 27.04 q 0,0.2 -0.16,0.36 -0.12,0.12 -0.32,0.12 h -3.68 q -0.2,0 -0.36,-0.12 -0.12,-0.16 -0.12,-0.36 v -11.44 q 0,-0.2 -0.2,-0.2 h -10.2 q -0.2,0 -0.2,0.2 v 11.44 q 0,0.2 -0.16,0.36 -0.12,0.12 -0.32,0.12 h -3.68 q -0.2,0 -0.36,-0.12 -0.12,-0.16 -0.12,-0.36 v -27.04 q 0,-0.2 0.12,-0.32 0.16,-0.16 0.36,-0.16 h 3.68 q 0.2,0 0.32,0.16 0.16,0.12 0.16,0.32 v 11.2 q 0,0.2 0.2,0.2 h 10.2 q 0.2,0 0.2,-0.2 z"
         style="font-weight:600;font-family:Barlow;-inkscape-font-specification:'Barlow Semi-Bold'"
         id="path14168" />
      <path
         d="m 162.7085,-18.011381 c -2,0 -3.76,-0.386667 -5.28,-1.16 -1.52,-0.773333 -2.70667,-1.866667 -3.56,-3.28 -0.82667,-1.44 -1.23696,-3.093336 -1.24,-4.96 l -0.0196,-12.050965 c -2.2e-4,-0.133334 0.04,-0.24 0.12,-0.32 0.10667,-0.106667 0.22667,-0.16 0.36,-0.16 h 3.68 c 0.13333,0 0.24,0.05333 0.32,0.16 0.10667,0.08 0.15978,0.186667 0.16,0.32 l 0.0196,12.130965 c 0.003,1.573334 0.49333,2.853333 1.48,3.84 1.01333,0.986667 2.33333,1.48 3.96,1.48 1.62667,0 2.93333,-0.493333 3.92,-1.48 0.98667,-0.986667 1.48255,-2.266669 1.48,-3.84 l -0.0196,-12.130965 c -2.2e-4,-0.133333 0.04,-0.24 0.12,-0.32 0.10667,-0.106667 0.22667,-0.16 0.36,-0.16 h 3.68 c 0.13333,0 0.24,0.05333 0.32,0.16 0.10667,0.08 0.15978,0.186666 0.16,0.32 l 0.0196,12.050965 c 0.003,1.866664 -0.41333,3.52 -1.24,4.96 -0.82667,1.413333 -2,2.506667 -3.52,3.28 -1.52,0.773333 -3.28,1.16 -5.28,1.16 z m 3.98003,-23.459347 c -0.82667,0 -1.50667,-0.266667 -2.04,-0.8 -0.53333,-0.533334 -0.8,-1.213334 -0.8,-2.04 0,-0.826667 0.26667,-1.506667 0.8,-2.04 0.53333,-0.533334 1.21333,-0.8 2.04,-0.8 0.82667,0 1.49333,0.266666 2,0.8 0.53333,0.533333 0.8,1.213333 0.8,2.04 0,0.826666 -0.26667,1.506666 -0.8,2.04 -0.53333,0.533333 -1.2,0.8 -2,0.8 z m -7.6,0 c -0.82667,0 -1.50667,-0.266667 -2.04,-0.8 -0.53333,-0.533334 -0.8,-1.213334 -0.8,-2.04 0,-0.826667 0.26667,-1.506667 0.8,-2.04 0.53333,-0.533334 1.21333,-0.8 2.04,-0.8 0.82667,0 1.49333,0.266666 2,0.8 0.53333,0.533333 0.8,1.213333 0.8,2.04 0,0.826666 -0.26667,1.506666 -0.8,2.04 -0.53333,0.533333 -1.2,0.8 -2,0.8 z"
         style="font-weight:600;font-family:Barlow;-inkscape-font-specification:'Barlow Semi-Bold'"
         id="path14170"
         sodipodi:nodetypes="sscssssscsscssssssscsscssssssscsssssssscsss" />
      <path
         d="m 194.54843,-18.331381 q -0.4,0 -0.56,-0.36 l -5.28,-11.52 q -0.08,-0.16 -0.24,-0.16 h -4.8 q -0.2,0 -0.2,0.2 v 11.36 q 0,0.2 -0.16,0.36 -0.12,0.12 -0.32,0.12 h -3.68 q -0.2,0 -0.36,-0.12 -0.12,-0.16 -0.12,-0.36 v -27.04 q 0,-0.2 0.12,-0.32 0.16,-0.16 0.36,-0.16 h 11 q 2.44,0 4.32,1.04 1.88,1 2.92,2.88 1.04,1.84 1.04,4.24 0,2.76 -1.44,4.72 -1.4,1.92 -3.92,2.68 -0.08,0 -0.12,0.08 -0.04,0.08 0,0.16 l 5.64,11.64 q 0.08,0.16 0.08,0.24 0,0.32 -0.44,0.32 z m -10.88,-24 q -0.2,0 -0.2,0.2 v 7.96 q 0,0.2 0.2,0.2 h 6 q 1.92,0 3.08,-1.12 1.2,-1.16 1.2,-3.04 0,-1.88 -1.2,-3.04 -1.16,-1.16 -3.08,-1.16 z"
         style="font-weight:600;font-family:Barlow;-inkscape-font-specification:'Barlow Semi-Bold'"
         id="path14172" />
      <path
         d="m 218.78839,-18.331381 q -0.4,0 -0.56,-0.36 l -5.28,-11.52 q -0.08,-0.16 -0.24,-0.16 h -4.8 q -0.2,0 -0.2,0.2 v 11.36 q 0,0.2 -0.16,0.36 -0.12,0.12 -0.32,0.12 h -3.68 q -0.2,0 -0.36,-0.12 -0.12,-0.16 -0.12,-0.36 v -27.04 q 0,-0.2 0.12,-0.32 0.16,-0.16 0.36,-0.16 h 11 q 2.44,0 4.32,1.04 1.88,1 2.92,2.88 1.04,1.84 1.04,4.24 0,2.76 -1.44,4.72 -1.4,1.92 -3.92,2.68 -0.08,0 -0.12,0.08 -0.04,0.08 0,0.16 l 5.64,11.64 q 0.08,0.16 0.08,0.24 0,0.32 -0.44,0.32 z m -10.88,-24 q -0.2,0 -0.2,0.2 v 7.96 q 0,0.2 0.2,0.2 h 6 q 1.92,0 3.08,-1.12 1.2,-1.16 1.2,-3.04 0,-1.88 -1.2,-3.04 -1.16,-1.16 -3.08,-1.16 z"
         style="font-weight:600;font-family:Barlow;-inkscape-font-specification:'Barlow Semi-Bold'"
         id="path14174" />
      <path
         d="m 226.90835,-38.291381 q 0,-0.2 0.12,-0.32 0.16,-0.16 0.36,-0.16 h 3.68 q 0.2,0 0.32,0.16 0.16,0.12 0.16,0.32 v 19.48 q 0,0.2 -0.16,0.36 -0.12,0.12 -0.32,0.12 h -3.68 q -0.2,0 -0.36,-0.12 -0.12,-0.16 -0.12,-0.36 z m 2.32,-3.28 q -1.24,0 -2.04,-0.8 -0.8,-0.8 -0.8,-2.04 0,-1.24 0.8,-2.04 0.8,-0.8 2.04,-0.8 1.24,0 2,0.8 0.8,0.8 0.8,2.04 0,1.24 -0.8,2.04 -0.8,0.8 -2,0.8 z"
         style="font-weight:600;font-family:Barlow;-inkscape-font-specification:'Barlow Semi-Bold'"
         id="path14176" />
      <path
         d="m 243.34828,-29.571381 q 0,-0.08 -0.08,-0.24 l -8.24,-15.96 q -0.08,-0.16 -0.08,-0.24 0,-0.32 0.44,-0.32 h 3.96 q 0.4,0 0.56,0.36 l 5.64,11.16 q 0.12,0.16 0.24,0 l 5.6,-11.16 q 0.2,-0.36 0.56,-0.36 h 4 q 0.28,0 0.36,0.16 0.12,0.16 0,0.4 l -8.28,15.96 q -0.08,0.16 -0.08,0.24 v 10.72 q 0,0.2 -0.16,0.36 -0.12,0.12 -0.32,0.12 h -3.64 q -0.2,0 -0.36,-0.12 -0.12,-0.16 -0.12,-0.36 z"
         style="font-weight:600;font-family:Barlow;-inkscape-font-specification:'Barlow Semi-Bold'"
         id="path14178" />
      <path
         d="m 279.06826,-42.811381 q 0,0.2 -0.16,0.36 -0.12,0.12 -0.32,0.12 h -13.64 q -0.2,0 -0.2,0.2 v 7.48 q 0,0.2 0.2,0.2 h 9.16 q 0.2,0 0.32,0.16 0.16,0.12 0.16,0.32 v 3.04 q 0,0.2 -0.16,0.36 -0.12,0.12 -0.32,0.12 h -9.16 q -0.2,0 -0.2,0.2 v 7.72 q 0,0.2 0.2,0.2 h 13.64 q 0.2,0 0.32,0.16 0.16,0.12 0.16,0.32 v 3.04 q 0,0.2 -0.16,0.36 -0.12,0.12 -0.32,0.12 h -18 q -0.2,0 -0.36,-0.12 -0.12,-0.16 -0.12,-0.36 v -27.04 q 0,-0.2 0.12,-0.32 0.16,-0.16 0.36,-0.16 h 18 q 0.2,0 0.32,0.16 0.16,0.12 0.16,0.32 z"
         style="font-weight:600;font-family:Barlow;-inkscape-font-specification:'Barlow Semi-Bold'"
         id="path14180" />
      <path
         d="m 301.26819,-46.331381 q 0.2,0 0.32,0.16 0.16,0.12 0.16,0.32 v 3.08 q 0,0.2 -0.16,0.36 -0.12,0.12 -0.32,0.12 h -7.4 q -0.2,0 -0.2,0.2 v 23.28 q 0,0.2 -0.16,0.36 -0.12,0.12 -0.32,0.12 h -3.68 q -0.2,0 -0.36,-0.12 -0.12,-0.16 -0.12,-0.36 v -23.28 q 0,-0.2 -0.2,-0.2 h -7.08 q -0.2,0 -0.36,-0.12 -0.12,-0.16 -0.12,-0.36 v -3.08 q 0,-0.2 0.12,-0.32 0.16,-0.16 0.36,-0.16 z"
         style="font-weight:600;font-family:Barlow;-inkscape-font-specification:'Barlow Semi-Bold'"
         id="path14182" />
      <path
         d="m 142.38852,7.0913256 q 0,-0.2 0.12,-0.32 0.16,-0.16 0.36,-0.16 h 3.68 q 0.2,0 0.32,0.16 0.16,0.12 0.16,0.32 V 34.131326 q 0,0.2 -0.16,0.36 -0.12,0.12 -0.32,0.12 h -3.68 q -0.2,0 -0.36,-0.12 -0.12,-0.16 -0.12,-0.36 v -11.44 q 0,-0.2 -0.2,-0.2 h -10.2 q -0.2,0 -0.2,0.2 v 11.44 q 0,0.2 -0.16,0.36 -0.12,0.12 -0.32,0.12 h -3.68 q -0.2,0 -0.36,-0.12 -0.12,-0.16 -0.12,-0.36 V 7.0913256 q 0,-0.2 0.12,-0.32 0.16,-0.16 0.36,-0.16 h 3.68 q 0.2,0 0.32,0.16 0.16,0.12 0.16,0.32 V 18.291326 q 0,0.2 0.2,0.2 h 10.2 q 0.2,0 0.2,-0.2 z"
         style="font-weight:600;font-family:Barlow;-inkscape-font-specification:'Barlow Semi-Bold'"
         id="path14184" />
      <path
         d="m 169.7485,34.611326 q -0.4,0 -0.52,-0.4 l -1.32,-4.28 q -0.08,-0.16 -0.2,-0.16 h -10.6 q -0.12,0 -0.2,0.16 l -1.32,4.28 q -0.12,0.4 -0.52,0.4 h -4 q -0.24,0 -0.36,-0.12 -0.12,-0.16 -0.04,-0.44 l 8.72,-27.0400004 q 0.12,-0.4 0.52,-0.4 h 5 q 0.4,0 0.52,0.4 l 8.72,27.0400004 q 0.04,0.08 0.04,0.2 0,0.36 -0.44,0.36 z m -11.6,-8.72 q -0.04,0.24 0.16,0.24 h 8.16 q 0.24,0 0.16,-0.24 l -4.12,-13.48 q -0.04,-0.16 -0.12,-0.16 -0.08,0 -0.12,0.16 z"
         style="font-weight:600;font-family:Barlow;-inkscape-font-specification:'Barlow Semi-Bold'"
         id="path14186" />
      <path
         d="m 193.50847,34.611326 q -0.4,0 -0.56,-0.36 l -5.28,-11.52 q -0.08,-0.16 -0.24,-0.16 h -4.8 q -0.2,0 -0.2,0.2 v 11.36 q 0,0.2 -0.16,0.36 -0.12,0.12 -0.32,0.12 h -3.68 q -0.2,0 -0.36,-0.12 -0.12,-0.16 -0.12,-0.36 V 7.0913256 q 0,-0.2 0.12,-0.32 0.16,-0.16 0.36,-0.16 h 11 q 2.44,0 4.32,1.04 1.88,1 2.92,2.8800004 1.04,1.84 1.04,4.24 0,2.76 -1.44,4.72 -1.4,1.92 -3.92,2.68 -0.08,0 -0.12,0.08 -0.04,0.08 0,0.16 l 5.64,11.64 q 0.08,0.16 0.08,0.24 0,0.32 -0.44,0.32 z m -10.88,-24 q -0.2,0 -0.2,0.2 v 7.96 q 0,0.2 0.2,0.2 h 6 q 1.92,0 3.08,-1.12 1.2,-1.16 1.2,-3.04 0,-1.88 -1.2,-3.04 -1.16,-1.16 -3.08,-1.16 z"
         style="font-weight:600;font-family:Barlow;-inkscape-font-specification:'Barlow Semi-Bold'"
         id="path14188" />
      <path
         d="m 220.98843,10.131326 q 0,0.2 -0.16,0.36 -0.12,0.12 -0.32,0.12 h -13.64 q -0.2,0 -0.2,0.2 v 7.48 q 0,0.2 0.2,0.2 h 9.16 q 0.2,0 0.32,0.16 0.16,0.12 0.16,0.32 v 3.04 q 0,0.2 -0.16,0.36 -0.12,0.12 -0.32,0.12 h -9.16 q -0.2,0 -0.2,0.2 v 7.72 q 0,0.2 0.2,0.2 h 13.64 q 0.2,0 0.32,0.16 0.16,0.12 0.16,0.32 v 3.04 q 0,0.2 -0.16,0.36 -0.12,0.12 -0.32,0.12 h -18 q -0.2,0 -0.36,-0.12 -0.12,-0.16 -0.12,-0.36 V 7.0913256 q 0,-0.2 0.12,-0.32 0.16,-0.16 0.36,-0.16 h 18 q 0.2,0 0.32,0.16 0.16,0.12 0.16,0.32 z"
         style="font-weight:600;font-family:Barlow;-inkscape-font-specification:'Barlow Semi-Bold'"
         id="path14190" />
      <path
         d="m 225.34836,7.0913256 q 0,-0.2 0.12,-0.32 0.16,-0.16 0.36,-0.16 h 3.68 q 0.2,0 0.32,0.16 0.16,0.12 0.16,0.32 V 19.051326 q 0,0.12 0.08,0.16 0.08,0.04 0.16,-0.04 l 10.4,-12.2800004 q 0.24,-0.28 0.6,-0.28 h 4.16 q 0.4,0 0.4,0.28 0,0.12 -0.12,0.32 l -9.16,11.2400004 q -0.12,0.16 -0.04,0.28 l 9.84,15.32 q 0.08,0.24 0.08,0.28 0,0.28 -0.4,0.28 h -4.2 q -0.36,0 -0.56,-0.32 l -7.92,-12.32 q -0.16,-0.24 -0.28,-0.04 l -2.96,3.44 q -0.08,0.16 -0.08,0.28 v 8.48 q 0,0.2 -0.16,0.36 -0.12,0.12 -0.32,0.12 h -3.68 q -0.2,0 -0.36,-0.12 -0.12,-0.16 -0.12,-0.36 z"
         style="font-weight:600;font-family:Barlow;-inkscape-font-specification:'Barlow Semi-Bold'"
         id="path14192" />
      <path
         d="m 268.62835,10.131326 q 0,0.2 -0.16,0.36 -0.12,0.12 -0.32,0.12 h -13.64 q -0.2,0 -0.2,0.2 v 7.48 q 0,0.2 0.2,0.2 h 9.16 q 0.2,0 0.32,0.16 0.16,0.12 0.16,0.32 v 3.04 q 0,0.2 -0.16,0.36 -0.12,0.12 -0.32,0.12 h -9.16 q -0.2,0 -0.2,0.2 v 7.72 q 0,0.2 0.2,0.2 h 13.64 q 0.2,0 0.32,0.16 0.16,0.12 0.16,0.32 v 3.04 q 0,0.2 -0.16,0.36 -0.12,0.12 -0.32,0.12 h -18 q -0.2,0 -0.36,-0.12 -0.12,-0.16 -0.12,-0.36 V 7.0913256 q 0,-0.2 0.12,-0.32 0.16,-0.16 0.36,-0.16 h 18 q 0.2,0 0.32,0.16 0.16,0.12 0.16,0.32 z"
         style="font-weight:600;font-family:Barlow;-inkscape-font-specification:'Barlow Semi-Bold'"
         id="path14194" />
      <path
         d="m 290.82828,6.6113256 q 0.2,0 0.32,0.16 0.16,0.12 0.16,0.32 v 3.0800004 q 0,0.2 -0.16,0.36 -0.12,0.12 -0.32,0.12 h -7.4 q -0.2,0 -0.2,0.2 v 23.28 q 0,0.2 -0.16,0.36 -0.12,0.12 -0.32,0.12 h -3.68 q -0.2,0 -0.36,-0.12 -0.12,-0.16 -0.12,-0.36 v -23.28 q 0,-0.2 -0.2,-0.2 h -7.08 q -0.2,0 -0.36,-0.12 -0.12,-0.16 -0.12,-0.36 V 7.0913256 q 0,-0.2 0.12,-0.32 0.16,-0.16 0.36,-0.16 z"
         style="font-weight:600;font-family:Barlow;-inkscape-font-specification:'Barlow Semi-Bold'"
         id="path14196" />
      <path
         d="m 294.58825,14.651326 q 0,-0.2 0.12,-0.32 0.16,-0.16 0.36,-0.16 h 3.68 q 0.2,0 0.32,0.16 0.16,0.12 0.16,0.32 v 19.48 q 0,0.2 -0.16,0.36 -0.12,0.12 -0.32,0.12 h -3.68 q -0.2,0 -0.36,-0.12 -0.12,-0.16 -0.12,-0.36 z m 2.32,-3.28 q -1.24,0 -2.04,-0.8 -0.8,-0.8000004 -0.8,-2.0400004 0,-1.24 0.8,-2.04 0.8,-0.8 2.04,-0.8 1.24,0 2,0.8 0.8,0.8 0.8,2.04 0,1.24 -0.8,2.0400004 -0.8,0.8 -2,0.8 z"
         style="font-weight:600;font-family:Barlow;-inkscape-font-specification:'Barlow Semi-Bold'"
         id="path14198" />
    </g>
  </g>
</svg>
